<?xml version="1.0" encoding="utf-8"?>
<svg version="1.1" xmlns:xlink="http://www.w3.org/1999/xlink" width="276px" height="252px" xmlns="http://www.w3.org/2000/svg">
  <g transform="matrix(1 0 0 1 -267 -472 )">
    <path d="M 74.5570469798655 98.0782122905032  C 46.7621644295302 144.098324022347  0 252  0 252  C 0 252  15.7256711409397 226.272067039106  35.1946308724833 212.581005586592  C 57.8550335570469 196.643296089386  84.7449664429528 192.402234636872  84.7449664429528 192.402234636872  C 84.7449664429528 192.402234636872  201.906040268456 190.994413407821  201.906040268456 190.994413407821  L 202.8322147651 237.45251396648  L 276 117.31843575419  L 202.369127516778 0  L 201.442953020134 47.3966480446932  C 201.442953020134 47.3966480446932  122.718120805369 48.8044692737433  122.718120805369 48.8044692737433  C 122.718120805369 48.8044692737433  107.656208053691 43.2729050279334  74.5570469798655 98.0782122905032  Z " fill-rule="nonzero" fill="#cecece" stroke="none" transform="matrix(1 0 0 1 267 472 )" />
  </g>
</svg>