<?xml version="1.0" encoding="utf-8"?>
<svg version="1.1" xmlns:xlink="http://www.w3.org/1999/xlink" width="315px" height="284px" xmlns="http://www.w3.org/2000/svg">
  <g transform="matrix(1 0 0 1 -786 -572 )">
    <path d="M 229.907718120805 173.467411545624  C 261.630138422819 121.6034761018  315 0  315 0  C 315 0  297.052223154362 28.9949720670391  274.832214765101 44.4245810055866  C 248.969798657718 62.3861266294227  218.280201342282 67.1657355679702  218.280201342282 67.1657355679702  C 218.280201342282 67.1657355679702  84.5637583892617 68.7523277467412  84.5637583892617 68.7523277467412  L 83.5067114093959 16.3947858472998  L 0 151.783985102421  L 84.0352348993289 284  L 85.0922818791946 230.584729981378  C 85.0922818791946 230.584729981378  174.941275167785 228.998137802607  174.941275167785 228.998137802607  C 174.941275167785 228.998137802607  192.131501677852 235.232122905028  229.907718120805 173.467411545624  Z " fill-rule="nonzero" fill="#cecece" stroke="none" transform="matrix(1 0 0 1 786 572 )" />
  </g>
</svg>