<?xml version="1.0" encoding="utf-8"?>
<svg version="1.1" xmlns:xlink="http://www.w3.org/1999/xlink" width="59px" height="49px" xmlns="http://www.w3.org/2000/svg">
  <defs>
    <mask fill="white" id="clip210">
      <path d="M 57.9052734375 39.7274305555556  C 58.6350911458333 40.8049768518518  59 42.0810185185185  59 43.5555555555556  C 59 45.0300925925926  58.6350911458333 46.3061342592593  57.9052734375 47.3836805555556  C 57.1754557291667 48.4612268518519  56.3111979166667 49  55.3125 49  L 3.6875 49  C 2.68880208333333 49  1.82454427083333 48.4612268518519  1.0947265625 47.3836805555556  C 0.364908854166667 46.3061342592593  0 45.0300925925926  0 43.5555555555556  C 0 42.0810185185185  0.364908854166667 40.8049768518518  1.0947265625 39.7274305555556  L 26.9072265625 1.61631944444445  C 27.6370442708333 0.538773148148142  28.5013020833333 0  29.5 0  C 30.4986979166667 0  31.3629557291667 0.538773148148142  32.0927734375 1.61631944444445  L 57.9052734375 39.7274305555556  Z " fill-rule="evenodd" />
    </mask>
  </defs>
  <g transform="matrix(1 0 0 1 -1801 -381 )">
    <path d="M 57.9052734375 39.7274305555556  C 58.6350911458333 40.8049768518518  59 42.0810185185185  59 43.5555555555556  C 59 45.0300925925926  58.6350911458333 46.3061342592593  57.9052734375 47.3836805555556  C 57.1754557291667 48.4612268518519  56.3111979166667 49  55.3125 49  L 3.6875 49  C 2.68880208333333 49  1.82454427083333 48.4612268518519  1.0947265625 47.3836805555556  C 0.364908854166667 46.3061342592593  0 45.0300925925926  0 43.5555555555556  C 0 42.0810185185185  0.364908854166667 40.8049768518518  1.0947265625 39.7274305555556  L 26.9072265625 1.61631944444445  C 27.6370442708333 0.538773148148142  28.5013020833333 0  29.5 0  C 30.4986979166667 0  31.3629557291667 0.538773148148142  32.0927734375 1.61631944444445  L 57.9052734375 39.7274305555556  Z " fill-rule="nonzero" fill="#f6ffe5" stroke="none" transform="matrix(1 0 0 1 1801 381 )" />
    <path d="M 57.9052734375 39.7274305555556  C 58.6350911458333 40.8049768518518  59 42.0810185185185  59 43.5555555555556  C 59 45.0300925925926  58.6350911458333 46.3061342592593  57.9052734375 47.3836805555556  C 57.1754557291667 48.4612268518519  56.3111979166667 49  55.3125 49  L 3.6875 49  C 2.68880208333333 49  1.82454427083333 48.4612268518519  1.0947265625 47.3836805555556  C 0.364908854166667 46.3061342592593  0 45.0300925925926  0 43.5555555555556  C 0 42.0810185185185  0.364908854166667 40.8049768518518  1.0947265625 39.7274305555556  L 26.9072265625 1.61631944444445  C 27.6370442708333 0.538773148148142  28.5013020833333 0  29.5 0  C 30.4986979166667 0  31.3629557291667 0.538773148148142  32.0927734375 1.61631944444445  L 57.9052734375 39.7274305555556  Z " stroke-width="2" stroke="#d5d5d5" fill="none" transform="matrix(1 0 0 1 1801 381 )" mask="url(#clip210)" />
  </g>
</svg>