<?xml version="1.0" encoding="utf-8"?>
<svg version="1.1" xmlns:xlink="http://www.w3.org/1999/xlink" width="422px" height="422px" xmlns="http://www.w3.org/2000/svg">
  <g transform="matrix(1 0 0 1 -841 -378 )">
    <path d="M 1052 379  C 1169.6 379  1262 471.4  1262 589  C 1262 706.6  1169.6 799  1052 799  C 934.4 799  842 706.6  842 589  C 842 471.4  934.4 379  1052 379  Z " fill-rule="nonzero" fill="#ffffff" stroke="none" />
    <path d="M 1052 379  C 1169.6 379  1262 471.4  1262 589  C 1262 706.6  1169.6 799  1052 799  C 934.4 799  842 706.6  842 589  C 842 471.4  934.4 379  1052 379  Z " stroke-width="2" stroke="#797979" fill="none" />
  </g>
</svg>