<?xml version="1.0" encoding="utf-8"?>
<svg version="1.1" xmlns:xlink="http://www.w3.org/1999/xlink" width="23px" height="19px" xmlns="http://www.w3.org/2000/svg">
  <g transform="matrix(1 0 0 1 -1755 -131 )">
    <path d="M 22.5732421875 15.4045138888889  C 22.8577473958333 15.822337962963  23 16.3171296296296  23 16.8888888888889  C 23 17.4606481481481  22.8577473958333 17.9554398148148  22.5732421875 18.3732638888889  C 22.2887369791667 18.791087962963  21.9518229166667 19  21.5625 19  L 1.4375 19  C 1.04817708333333 19  0.711263020833333 18.791087962963  0.4267578125 18.3732638888889  C 0.142252604166667 17.9554398148148  0 17.4606481481481  0 16.8888888888889  C 0 16.3171296296296  0.142252604166667 15.822337962963  0.4267578125 15.4045138888889  L 10.4892578125 0.626736111111112  C 10.7737630208333 0.208912037037035  11.1106770833333 0  11.5 0  C 11.8893229166667 0  12.2262369791667 0.208912037037035  12.5107421875 0.626736111111112  L 22.5732421875 15.4045138888889  Z " fill-rule="nonzero" fill="#ff9292" stroke="none" transform="matrix(1 0 0 1 1755 131 )" />
  </g>
</svg>