<?xml version="1.0" encoding="utf-8"?>
<svg version="1.1" xmlns:xlink="http://www.w3.org/1999/xlink" width="283px" height="253px" xmlns="http://www.w3.org/2000/svg">
  <g transform="matrix(1 0 0 1 -644 -129 )">
    <path d="M 76.4479865771812 98.4674115456245  C 47.9481613534676 144.670142768467  0 253  0 253  C 0 253  16.1245106263984 227.169972067039  36.0872483221478 213.424581005587  C 59.3223713646532 197.423626629423  86.8942953020134 193.165735567971  86.8942953020134 193.165735567971  C 86.8942953020134 193.165735567971  207.026845637584 191.752327746741  207.026845637584 191.752327746741  L 207.976510067114 238.3947858473  L 283 117.783985102421  L 207.501677852349 0  L 206.552013422819 47.5847299813788  C 206.552013422819 47.5847299813788  125.830536912752 48.9981378026078  125.830536912752 48.9981378026078  C 125.830536912752 48.9981378026078  110.386619127517 43.4446229050288  76.4479865771812 98.4674115456245  Z " fill-rule="nonzero" fill="#f6f6f6" stroke="none" transform="matrix(1 0 0 1 644 129 )" />
  </g>
</svg>